{
	"asset": {
		"generator": "Khronos glTF Blender I/O v4.2.70",
		"version": "2.0"
	},
	"scene": 0,
	"scenes": [
		{
			"name": "Scene",
			"nodes": [
				8,
				9
			]
		}
	],
	"nodes": [
		{
			"name": "ArmL2",
			"rotation": [
				2.895219530785198e-08,
				-3.771583578782156e-08,
				0.0006561206537298858,
				0.9999997615814209
			],
			"translation": [
				1.5258765415637754e-05,
				52.54584503173828,
				-7.629402716702316e-06
			]
		},
		{
			"children": [
				0
			],
			"name": "ArmL1",
			"rotation": [
				0.6643044352531433,
				0.24228085577487946,
				-0.2422807216644287,
				0.6643039584159851
			],
			"scale": [
				1,
				0.9999999403953552,
				1.0000001192092896
			],
			"translation": [
				1.4055404663085938,
				-3.814698175119702e-06,
				59.16444396972656
			]
		},
		{
			"name": "Flap3",
			"rotation": [
				0.49999940395355225,
				-0.49999937415122986,
				0.5000005960464478,
				0.5000007152557373
			],
			"scale": [
				1,
				1,
				1.0000001192092896
			],
			"translation": [
				26.925643920898438,
				46.614837646484375,
				-2.2827600332675502e-05
			]
		},
		{
			"name": "Flap2",
			"rotation": [
				0.6830124258995056,
				-0.6830124258995056,
				0.18301361799240112,
				0.1830136775970459
			],
			"scale": [
				1.0000001192092896,
				1,
				1.0000001192092896
			],
			"translation": [
				26.925657272338867,
				-23.307435989379883,
				-40.36965560913086
			]
		},
		{
			"name": "Flap1",
			"rotation": [
				-0.3535532057285309,
				0.35355323553085327,
				0.6123725175857544,
				0.612372636795044
			],
			"scale": [
				1,
				1,
				1.0000001192092896
			],
			"translation": [
				26.92564582824707,
				-23.307430267333984,
				40.369625091552734
			]
		},
		{
			"name": "ArmR2",
			"rotation": [
				1.1437859548379947e-08,
				2.7657986123585943e-08,
				-0.0006563293281942606,
				0.9999997615814209
			],
			"scale": [
				0.9999998807907104,
				0.9999998807907104,
				0.9999999403953552
			],
			"translation": [
				-2.288818905071821e-05,
				52.54583740234375,
				-4.429401087691076e-06
			]
		},
		{
			"children": [
				5
			],
			"name": "ArmR1",
			"rotation": [
				0.2422809898853302,
				0.6643041372299194,
				-0.6643041968345642,
				0.24228057265281677
			],
			"scale": [
				1,
				0.9999998807907104,
				1.0000001192092896
			],
			"translation": [
				1.4055557250976562,
				-1.1444092706369702e-05,
				-59.164432525634766
			]
		},
		{
			"children": [
				1,
				2,
				3,
				4,
				6
			],
			"name": "Body",
			"rotation": [
				1.5454309831852697e-08,
				-0.7071067690849304,
				1.5454309831852697e-08,
				0.7071067690849304
			],
			"scale": [
				1,
				0.9999998807907104,
				1
			],
			"translation": [
				0,
				3.934024334739661e-06,
				-90
			]
		},
		{
			"mesh": 0,
			"name": "Mesh",
			"skin": 0
		},
		{
			"children": [
				7
			],
			"name": "Armature",
			"rotation": [
				0.7071068286895752,
				0,
				0,
				0.7071068286895752
			],
			"scale": [
				0.009999999776482582,
				0.009999999776482582,
				0.009999999776482582
			]
		}
	],
	"animations": [
		{
			"channels": [
				{
					"sampler": 0,
					"target": {
						"node": 7,
						"path": "translation"
					}
				},
				{
					"sampler": 1,
					"target": {
						"node": 7,
						"path": "rotation"
					}
				},
				{
					"sampler": 2,
					"target": {
						"node": 7,
						"path": "scale"
					}
				},
				{
					"sampler": 3,
					"target": {
						"node": 1,
						"path": "translation"
					}
				},
				{
					"sampler": 4,
					"target": {
						"node": 1,
						"path": "rotation"
					}
				},
				{
					"sampler": 5,
					"target": {
						"node": 1,
						"path": "scale"
					}
				},
				{
					"sampler": 6,
					"target": {
						"node": 0,
						"path": "translation"
					}
				},
				{
					"sampler": 7,
					"target": {
						"node": 0,
						"path": "rotation"
					}
				},
				{
					"sampler": 8,
					"target": {
						"node": 0,
						"path": "scale"
					}
				},
				{
					"sampler": 9,
					"target": {
						"node": 2,
						"path": "translation"
					}
				},
				{
					"sampler": 10,
					"target": {
						"node": 2,
						"path": "rotation"
					}
				},
				{
					"sampler": 11,
					"target": {
						"node": 2,
						"path": "scale"
					}
				},
				{
					"sampler": 12,
					"target": {
						"node": 3,
						"path": "translation"
					}
				},
				{
					"sampler": 13,
					"target": {
						"node": 3,
						"path": "rotation"
					}
				},
				{
					"sampler": 14,
					"target": {
						"node": 3,
						"path": "scale"
					}
				},
				{
					"sampler": 15,
					"target": {
						"node": 4,
						"path": "translation"
					}
				},
				{
					"sampler": 16,
					"target": {
						"node": 4,
						"path": "rotation"
					}
				},
				{
					"sampler": 17,
					"target": {
						"node": 4,
						"path": "scale"
					}
				},
				{
					"sampler": 18,
					"target": {
						"node": 6,
						"path": "translation"
					}
				},
				{
					"sampler": 19,
					"target": {
						"node": 6,
						"path": "rotation"
					}
				},
				{
					"sampler": 20,
					"target": {
						"node": 6,
						"path": "scale"
					}
				},
				{
					"sampler": 21,
					"target": {
						"node": 5,
						"path": "translation"
					}
				},
				{
					"sampler": 22,
					"target": {
						"node": 5,
						"path": "rotation"
					}
				},
				{
					"sampler": 23,
					"target": {
						"node": 5,
						"path": "scale"
					}
				}
			],
			"name": "Animation",
			"samplers": [
				{
					"input": 8,
					"interpolation": "LINEAR",
					"output": 9
				},
				{
					"input": 8,
					"interpolation": "LINEAR",
					"output": 10
				},
				{
					"input": 11,
					"interpolation": "STEP",
					"output": 12
				},
				{
					"input": 11,
					"interpolation": "LINEAR",
					"output": 13
				},
				{
					"input": 8,
					"interpolation": "LINEAR",
					"output": 14
				},
				{
					"input": 11,
					"interpolation": "LINEAR",
					"output": 15
				},
				{
					"input": 11,
					"interpolation": "LINEAR",
					"output": 16
				},
				{
					"input": 8,
					"interpolation": "LINEAR",
					"output": 17
				},
				{
					"input": 11,
					"interpolation": "STEP",
					"output": 18
				},
				{
					"input": 11,
					"interpolation": "LINEAR",
					"output": 19
				},
				{
					"input": 8,
					"interpolation": "LINEAR",
					"output": 20
				},
				{
					"input": 11,
					"interpolation": "LINEAR",
					"output": 21
				},
				{
					"input": 11,
					"interpolation": "LINEAR",
					"output": 22
				},
				{
					"input": 8,
					"interpolation": "LINEAR",
					"output": 23
				},
				{
					"input": 11,
					"interpolation": "LINEAR",
					"output": 24
				},
				{
					"input": 11,
					"interpolation": "LINEAR",
					"output": 25
				},
				{
					"input": 8,
					"interpolation": "LINEAR",
					"output": 26
				},
				{
					"input": 11,
					"interpolation": "LINEAR",
					"output": 27
				},
				{
					"input": 11,
					"interpolation": "LINEAR",
					"output": 28
				},
				{
					"input": 8,
					"interpolation": "LINEAR",
					"output": 29
				},
				{
					"input": 11,
					"interpolation": "LINEAR",
					"output": 30
				},
				{
					"input": 11,
					"interpolation": "LINEAR",
					"output": 31
				},
				{
					"input": 8,
					"interpolation": "LINEAR",
					"output": 32
				},
				{
					"input": 11,
					"interpolation": "STEP",
					"output": 33
				}
			]
		}
	],
	"materials": [
		{
			"doubleSided": true,
			"name": "Material",
			"normalTexture": {
				"index": 0
			},
			"occlusionTexture": {
				"index": 3
			},
			"pbrMetallicRoughness": {
				"baseColorTexture": {
					"index": 1
				},
				"metallicRoughnessTexture": {
					"index": 2
				}
			}
		}
	],
	"meshes": [
		{
			"name": "Mesh",
			"primitives": [
				{
					"attributes": {
						"POSITION": 0,
						"NORMAL": 1,
						"TEXCOORD_0": 2,
						"TANGENT": 3,
						"JOINTS_0": 4,
						"WEIGHTS_0": 5
					},
					"indices": 6,
					"material": 0
				}
			]
		}
	],
	"textures": [
		{
			"sampler": 0,
			"source": 0
		},
		{
			"sampler": 0,
			"source": 1
		},
		{
			"sampler": 0,
			"source": 2
		},
		{
			"sampler": 0,
			"source": 3
		}
	],
	"images": [
		{
			"mimeType": "image/png",
			"name": "normal",
			"uri": "normal.png"
		},
		{
			"mimeType": "image/png",
			"name": "base-color",
			"uri": "base-color.png"
		},
		{
			"mimeType": "image/png",
			"name": "metallic-roughness",
			"uri": "metallic-roughness.png"
		},
		{
			"mimeType": "image/png",
			"name": "occlusion",
			"uri": "occlusion.png"
		}
	],
	"skins": [
		{
			"inverseBindMatrices": 7,
			"joints": [
				7,
				1,
				0,
				2,
				3,
				4,
				6,
				5
			],
			"name": "Armature"
		}
	],
	"accessors": [
		{
			"bufferView": 0,
			"componentType": 5126,
			"count": 7934,
			"max": [
				1.790581226348877,
				1.7454754114151,
				0.7269137501716614
			],
			"min": [
				-1.7905813455581665,
				-0.16184808313846588,
				-0.637975811958313
			],
			"type": "VEC3"
		},
		{
			"bufferView": 1,
			"componentType": 5126,
			"count": 7934,
			"type": "VEC3"
		},
		{
			"bufferView": 2,
			"componentType": 5126,
			"count": 7934,
			"type": "VEC2"
		},
		{
			"bufferView": 3,
			"componentType": 5126,
			"count": 7934,
			"type": "VEC4"
		},
		{
			"bufferView": 4,
			"componentType": 5121,
			"count": 7934,
			"type": "VEC4"
		},
		{
			"bufferView": 5,
			"componentType": 5126,
			"count": 7934,
			"type": "VEC4"
		},
		{
			"bufferView": 6,
			"componentType": 5123,
			"count": 27033,
			"type": "SCALAR"
		},
		{
			"bufferView": 7,
			"componentType": 5126,
			"count": 8,
			"type": "MAT4"
		},
		{
			"bufferView": 8,
			"componentType": 5126,
			"count": 151,
			"max": [
				5
			],
			"min": [
				0
			],
			"type": "SCALAR"
		},
		{
			"bufferView": 9,
			"componentType": 5126,
			"count": 151,
			"type": "VEC3"
		},
		{
			"bufferView": 10,
			"componentType": 5126,
			"count": 151,
			"type": "VEC4"
		},
		{
			"bufferView": 11,
			"componentType": 5126,
			"count": 2,
			"max": [
				5
			],
			"min": [
				0
			],
			"type": "SCALAR"
		},
		{
			"bufferView": 12,
			"componentType": 5126,
			"count": 2,
			"type": "VEC3"
		},
		{
			"bufferView": 13,
			"componentType": 5126,
			"count": 2,
			"type": "VEC3"
		},
		{
			"bufferView": 14,
			"componentType": 5126,
			"count": 151,
			"type": "VEC4"
		},
		{
			"bufferView": 15,
			"componentType": 5126,
			"count": 2,
			"type": "VEC3"
		},
		{
			"bufferView": 16,
			"componentType": 5126,
			"count": 2,
			"type": "VEC3"
		},
		{
			"bufferView": 17,
			"componentType": 5126,
			"count": 151,
			"type": "VEC4"
		},
		{
			"bufferView": 18,
			"componentType": 5126,
			"count": 2,
			"type": "VEC3"
		},
		{
			"bufferView": 19,
			"componentType": 5126,
			"count": 2,
			"type": "VEC3"
		},
		{
			"bufferView": 20,
			"componentType": 5126,
			"count": 151,
			"type": "VEC4"
		},
		{
			"bufferView": 21,
			"componentType": 5126,
			"count": 2,
			"type": "VEC3"
		},
		{
			"bufferView": 22,
			"componentType": 5126,
			"count": 2,
			"type": "VEC3"
		},
		{
			"bufferView": 23,
			"componentType": 5126,
			"count": 151,
			"type": "VEC4"
		},
		{
			"bufferView": 24,
			"componentType": 5126,
			"count": 2,
			"type": "VEC3"
		},
		{
			"bufferView": 25,
			"componentType": 5126,
			"count": 2,
			"type": "VEC3"
		},
		{
			"bufferView": 26,
			"componentType": 5126,
			"count": 151,
			"type": "VEC4"
		},
		{
			"bufferView": 27,
			"componentType": 5126,
			"count": 2,
			"type": "VEC3"
		},
		{
			"bufferView": 28,
			"componentType": 5126,
			"count": 2,
			"type": "VEC3"
		},
		{
			"bufferView": 29,
			"componentType": 5126,
			"count": 151,
			"type": "VEC4"
		},
		{
			"bufferView": 30,
			"componentType": 5126,
			"count": 2,
			"type": "VEC3"
		},
		{
			"bufferView": 31,
			"componentType": 5126,
			"count": 2,
			"type": "VEC3"
		},
		{
			"bufferView": 32,
			"componentType": 5126,
			"count": 151,
			"type": "VEC4"
		},
		{
			"bufferView": 33,
			"componentType": 5126,
			"count": 2,
			"type": "VEC3"
		}
	],
	"bufferViews": [
		{
			"buffer": 0,
			"byteLength": 95208,
			"byteOffset": 0,
			"target": 34962
		},
		{
			"buffer": 0,
			"byteLength": 95208,
			"byteOffset": 95208,
			"target": 34962
		},
		{
			"buffer": 0,
			"byteLength": 63472,
			"byteOffset": 190416,
			"target": 34962
		},
		{
			"buffer": 0,
			"byteLength": 126944,
			"byteOffset": 253888,
			"target": 34962
		},
		{
			"buffer": 0,
			"byteLength": 31736,
			"byteOffset": 380832,
			"target": 34962
		},
		{
			"buffer": 0,
			"byteLength": 126944,
			"byteOffset": 412568,
			"target": 34962
		},
		{
			"buffer": 0,
			"byteLength": 54066,
			"byteOffset": 539512,
			"target": 34963
		},
		{
			"buffer": 0,
			"byteLength": 512,
			"byteOffset": 593580
		},
		{
			"buffer": 0,
			"byteLength": 604,
			"byteOffset": 594092
		},
		{
			"buffer": 0,
			"byteLength": 1812,
			"byteOffset": 594696
		},
		{
			"buffer": 0,
			"byteLength": 2416,
			"byteOffset": 596508
		},
		{
			"buffer": 0,
			"byteLength": 8,
			"byteOffset": 598924
		},
		{
			"buffer": 0,
			"byteLength": 24,
			"byteOffset": 598932
		},
		{
			"buffer": 0,
			"byteLength": 24,
			"byteOffset": 598956
		},
		{
			"buffer": 0,
			"byteLength": 2416,
			"byteOffset": 598980
		},
		{
			"buffer": 0,
			"byteLength": 24,
			"byteOffset": 601396
		},
		{
			"buffer": 0,
			"byteLength": 24,
			"byteOffset": 601420
		},
		{
			"buffer": 0,
			"byteLength": 2416,
			"byteOffset": 601444
		},
		{
			"buffer": 0,
			"byteLength": 24,
			"byteOffset": 603860
		},
		{
			"buffer": 0,
			"byteLength": 24,
			"byteOffset": 603884
		},
		{
			"buffer": 0,
			"byteLength": 2416,
			"byteOffset": 603908
		},
		{
			"buffer": 0,
			"byteLength": 24,
			"byteOffset": 606324
		},
		{
			"buffer": 0,
			"byteLength": 24,
			"byteOffset": 606348
		},
		{
			"buffer": 0,
			"byteLength": 2416,
			"byteOffset": 606372
		},
		{
			"buffer": 0,
			"byteLength": 24,
			"byteOffset": 608788
		},
		{
			"buffer": 0,
			"byteLength": 24,
			"byteOffset": 608812
		},
		{
			"buffer": 0,
			"byteLength": 2416,
			"byteOffset": 608836
		},
		{
			"buffer": 0,
			"byteLength": 24,
			"byteOffset": 611252
		},
		{
			"buffer": 0,
			"byteLength": 24,
			"byteOffset": 611276
		},
		{
			"buffer": 0,
			"byteLength": 2416,
			"byteOffset": 611300
		},
		{
			"buffer": 0,
			"byteLength": 24,
			"byteOffset": 613716
		},
		{
			"buffer": 0,
			"byteLength": 24,
			"byteOffset": 613740
		},
		{
			"buffer": 0,
			"byteLength": 2416,
			"byteOffset": 613764
		},
		{
			"buffer": 0,
			"byteLength": 24,
			"byteOffset": 616180
		}
	],
	"samplers": [
		{
			"magFilter": 9729,
			"minFilter": 9987
		}
	],
	"buffers": [
		{
			"byteLength": 616204,
			"uri": "mech-drone.bin"
		}
	]
}